<svg width="560" height="82" viewBox="0 0 560 82" fill="none" xmlns="http://www.w3.org/2000/svg">
<rect y="13.9575" width="19.1915" height="48.8511" fill="#3A3A3A"/>
<rect x="148.299" y="13.9575" width="19.1915" height="48.8511" fill="#3A3A3A"/>
<rect x="19.1914" width="20.9362" height="76.766" fill="#343434"/>
<rect x="127.361" width="20.9362" height="76.766" fill="#343434"/>
<rect x="40.127" y="29.6597" width="87.234" height="15.7021" fill="#D9D9D9"/>
<path d="M220.988 33.5C220.624 32.1719 220.09 30.9284 219.387 29.7695C218.684 28.5977 217.811 27.5755 216.77 26.7031C215.741 25.8177 214.549 25.1276 213.195 24.6328C211.854 24.138 210.357 23.8906 208.703 23.8906C206.099 23.8906 203.768 24.5677 201.711 25.9219C199.654 27.276 198.026 29.2292 196.828 31.7812C195.643 34.3333 195.051 37.4062 195.051 41C195.051 44.5807 195.65 47.6471 196.848 50.1992C198.046 52.7513 199.686 54.7109 201.77 56.0781C203.866 57.4323 206.262 58.1094 208.957 58.1094C211.418 58.1094 213.592 57.5625 215.48 56.4687C217.368 55.375 218.84 53.8125 219.895 51.7812C220.962 49.75 221.483 47.3346 221.457 44.5352L222.629 44.9062H209.816V41.625H225.012V44.9062C225.012 48.3177 224.322 51.2669 222.941 53.7539C221.561 56.2409 219.667 58.1615 217.258 59.5156C214.849 60.8698 212.082 61.5469 208.957 61.5469C205.467 61.5469 202.414 60.707 199.797 59.0273C197.18 57.3346 195.142 54.9518 193.684 51.8789C192.238 48.793 191.516 45.1667 191.516 41C191.516 37.862 191.932 35.0299 192.766 32.5039C193.599 29.9779 194.777 27.8164 196.301 26.0195C197.837 24.2227 199.654 22.849 201.75 21.8984C203.846 20.9349 206.164 20.4531 208.703 20.4531C210.891 20.4531 212.889 20.7982 214.699 21.4883C216.522 22.1784 218.124 23.1289 219.504 24.3398C220.897 25.5378 222.036 26.9245 222.922 28.5C223.82 30.0625 224.426 31.7292 224.738 33.5H220.988ZM241.735 61.6836C239.925 61.6836 238.272 61.332 236.774 60.6289C235.277 59.9128 234.086 58.8841 233.2 57.543C232.315 56.1888 231.872 54.5482 231.872 52.6211C231.872 51.1367 232.152 49.8867 232.712 48.8711C233.272 47.8555 234.066 47.0221 235.095 46.3711C236.123 45.7201 237.341 45.2057 238.747 44.8281C240.153 44.4505 241.703 44.1576 243.396 43.9492C245.075 43.7409 246.494 43.5586 247.653 43.4023C248.825 43.2461 249.717 42.9987 250.329 42.6602C250.941 42.3216 251.247 41.7747 251.247 41.0195V40.3164C251.247 38.2721 250.635 36.6641 249.411 35.4922C248.2 34.3073 246.455 33.7148 244.177 33.7148C242.015 33.7148 240.251 34.1901 238.884 35.1406C237.53 36.0911 236.579 37.2109 236.032 38.5L232.731 37.3086C233.409 35.668 234.346 34.3594 235.544 33.3828C236.742 32.3932 238.083 31.6836 239.567 31.2539C241.052 30.8112 242.556 30.5898 244.079 30.5898C245.225 30.5898 246.416 30.7396 247.653 31.0391C248.903 31.3385 250.062 31.8594 251.13 32.6016C252.198 33.3307 253.063 34.3529 253.728 35.668C254.392 36.9701 254.724 38.6237 254.724 40.6289V61H251.247V56.2539H251.032C250.616 57.1393 249.997 57.9987 249.177 58.832C248.356 59.6654 247.328 60.349 246.091 60.8828C244.854 61.4167 243.402 61.6836 241.735 61.6836ZM242.204 58.5C244.053 58.5 245.655 58.0898 247.009 57.2695C248.363 56.4492 249.405 55.362 250.134 54.0078C250.876 52.6406 251.247 51.1367 251.247 49.4961V45.1602C250.987 45.4076 250.55 45.6289 249.938 45.8242C249.34 46.0195 248.643 46.1953 247.849 46.3516C247.067 46.4948 246.286 46.6185 245.505 46.7227C244.724 46.8268 244.021 46.918 243.396 46.9961C241.703 47.2044 240.257 47.5299 239.06 47.9727C237.862 48.4154 236.944 49.0273 236.306 49.8086C235.668 50.5768 235.349 51.5664 235.349 52.7773C235.349 54.6003 236 56.013 237.302 57.0156C238.604 58.0052 240.238 58.5 242.204 58.5ZM267.448 42.25V61H263.972V31H267.351V35.707H267.663C268.366 34.1706 269.46 32.9401 270.944 32.0156C272.442 31.0781 274.291 30.6094 276.491 30.6094C278.509 30.6094 280.28 31.0326 281.804 31.8789C283.34 32.7122 284.532 33.9427 285.378 35.5703C286.237 37.1979 286.667 39.1966 286.667 41.5664V61H283.19V41.7812C283.19 39.3203 282.5 37.3737 281.12 35.9414C279.753 34.5091 277.917 33.793 275.612 33.793C274.037 33.793 272.637 34.1315 271.413 34.8086C270.189 35.4857 269.219 36.4622 268.503 37.7383C267.8 39.0013 267.448 40.5052 267.448 42.25ZM307.951 61.625C305.152 61.625 302.73 60.974 300.686 59.6719C298.641 58.3568 297.059 56.5404 295.939 54.2227C294.833 51.8919 294.279 49.2096 294.279 46.1758C294.279 43.1549 294.833 40.4727 295.939 38.1289C297.059 35.7721 298.602 33.9297 300.568 32.6016C302.548 31.2604 304.833 30.5898 307.424 30.5898C309.051 30.5898 310.62 30.8893 312.131 31.4883C313.641 32.0742 314.995 32.9792 316.193 34.2031C317.404 35.4141 318.361 36.944 319.064 38.793C319.768 40.6289 320.119 42.8034 320.119 45.3164V47.0352H296.682V43.9687H316.564C316.564 42.0417 316.174 40.3099 315.393 38.7734C314.624 37.224 313.55 36 312.17 35.1016C310.803 34.2031 309.221 33.7539 307.424 33.7539C305.523 33.7539 303.85 34.2617 302.404 35.2773C300.959 36.293 299.826 37.6341 299.006 39.3008C298.199 40.9674 297.788 42.7904 297.775 44.7695V46.6055C297.775 48.9883 298.186 51.0716 299.006 52.8555C299.839 54.6263 301.018 56 302.541 56.9766C304.064 57.9531 305.868 58.4414 307.951 58.4414C309.37 58.4414 310.614 58.2201 311.682 57.7773C312.762 57.3346 313.667 56.7422 314.396 56C315.139 55.2448 315.699 54.418 316.076 53.5195L319.377 54.5937C318.921 55.8568 318.173 57.0221 317.131 58.0898C316.102 59.1576 314.813 60.0169 313.264 60.668C311.727 61.306 309.956 61.625 307.951 61.625ZM347.937 37.582L344.753 38.4805C344.44 37.582 343.998 36.7682 343.425 36.0391C342.852 35.3099 342.103 34.7305 341.179 34.3008C340.267 33.8711 339.134 33.6562 337.78 33.6562C335.749 33.6562 334.082 34.138 332.78 35.1016C331.478 36.0651 330.827 37.3086 330.827 38.832C330.827 40.1211 331.27 41.1693 332.155 41.9766C333.054 42.7708 334.434 43.4023 336.296 43.8711L340.827 44.9844C343.34 45.5964 345.222 46.5664 346.472 47.8945C347.735 49.2227 348.366 50.8893 348.366 52.8945C348.366 54.5872 347.897 56.0911 346.96 57.4062C346.022 58.7214 344.714 59.7565 343.034 60.5117C341.368 61.2539 339.434 61.625 337.233 61.625C334.304 61.625 331.888 60.9674 329.987 59.6523C328.086 58.3242 326.869 56.4102 326.335 53.9102L329.675 53.0898C330.104 54.8737 330.944 56.2214 332.194 57.1328C333.457 58.0443 335.118 58.5 337.175 58.5C339.479 58.5 341.322 57.9857 342.702 56.957C344.082 55.9154 344.772 54.6133 344.772 53.0508C344.772 51.8398 344.369 50.8242 343.562 50.0039C342.754 49.1706 341.53 48.5586 339.89 48.168L334.987 46.9961C332.383 46.3711 330.456 45.3815 329.206 44.0273C327.956 42.6732 327.331 40.9935 327.331 38.9883C327.331 37.3346 327.78 35.8828 328.679 34.6328C329.577 33.3698 330.814 32.3802 332.39 31.6641C333.965 30.9479 335.762 30.5898 337.78 30.5898C340.528 30.5898 342.722 31.2148 344.362 32.4648C346.016 33.7018 347.207 35.4076 347.937 37.582ZM359.455 42.25V61H355.979V21H359.455V35.707H359.768C360.471 34.1576 361.558 32.9206 363.029 31.9961C364.514 31.0716 366.389 30.6094 368.654 30.6094C370.686 30.6094 372.469 31.026 374.006 31.8594C375.542 32.6927 376.74 33.9232 377.6 35.5508C378.459 37.1784 378.889 39.1836 378.889 41.5664V61H375.393V41.7812C375.393 39.3073 374.702 37.3607 373.322 35.9414C371.955 34.5091 370.106 33.793 367.775 33.793C366.174 33.793 364.748 34.1315 363.498 34.8086C362.248 35.4857 361.258 36.4622 360.529 37.7383C359.813 39.0013 359.455 40.5052 359.455 42.25ZM396.423 61.6836C394.613 61.6836 392.959 61.332 391.462 60.6289C389.965 59.9128 388.773 58.8841 387.888 57.543C387.002 56.1888 386.56 54.5482 386.56 52.6211C386.56 51.1367 386.84 49.8867 387.399 48.8711C387.959 47.8555 388.754 47.0221 389.782 46.3711C390.811 45.7201 392.028 45.2057 393.435 44.8281C394.841 44.4505 396.39 44.1576 398.083 43.9492C399.763 43.7409 401.182 43.5586 402.341 43.4023C403.513 43.2461 404.405 42.9987 405.017 42.6602C405.629 42.3216 405.935 41.7747 405.935 41.0195V40.3164C405.935 38.2721 405.323 36.6641 404.099 35.4922C402.888 34.3073 401.143 33.7148 398.864 33.7148C396.703 33.7148 394.938 34.1901 393.571 35.1406C392.217 36.0911 391.267 37.2109 390.72 38.5L387.419 37.3086C388.096 35.668 389.034 34.3594 390.231 33.3828C391.429 32.3932 392.771 31.6836 394.255 31.2539C395.739 30.8112 397.243 30.5898 398.767 30.5898C399.912 30.5898 401.104 30.7396 402.341 31.0391C403.591 31.3385 404.75 31.8594 405.817 32.6016C406.885 33.3307 407.751 34.3529 408.415 35.668C409.079 36.9701 409.411 38.6237 409.411 40.6289V61H405.935V56.2539H405.72C405.303 57.1393 404.685 57.9987 403.864 58.832C403.044 59.6654 402.015 60.349 400.778 60.8828C399.541 61.4167 398.09 61.6836 396.423 61.6836ZM396.892 58.5C398.741 58.5 400.342 58.0898 401.696 57.2695C403.05 56.4492 404.092 55.362 404.821 54.0078C405.563 52.6406 405.935 51.1367 405.935 49.4961V45.1602C405.674 45.4076 405.238 45.6289 404.626 45.8242C404.027 46.0195 403.33 46.1953 402.536 46.3516C401.755 46.4948 400.974 46.6185 400.192 46.7227C399.411 46.8268 398.708 46.918 398.083 46.9961C396.39 47.2044 394.945 47.5299 393.747 47.9727C392.549 48.4154 391.631 49.0273 390.993 49.8086C390.355 50.5768 390.036 51.5664 390.036 52.7773C390.036 54.6003 390.687 56.013 391.989 57.0156C393.291 58.0052 394.925 58.5 396.892 58.5ZM456.799 33.9297C456.525 32.9792 456.141 32.1393 455.646 31.4102C455.152 30.668 454.546 30.043 453.83 29.5352C453.127 29.0143 452.32 28.6172 451.408 28.3438C450.51 28.0703 449.514 27.9336 448.42 27.9336C446.376 27.9336 444.579 28.4414 443.029 29.457C441.493 30.4727 440.295 31.9505 439.436 33.8906C438.576 35.8177 438.146 38.1745 438.146 40.9609C438.146 43.7474 438.57 46.1172 439.416 48.0703C440.262 50.0234 441.46 51.5143 443.01 52.543C444.559 53.5586 446.389 54.0664 448.498 54.0664C450.412 54.0664 452.046 53.7279 453.4 53.0508C454.768 52.3607 455.809 51.3906 456.525 50.1406C457.255 48.8906 457.619 47.4128 457.619 45.707L459.338 45.9609H449.025V39.5937H465.764V44.6328C465.764 48.1484 465.021 51.1693 463.537 53.6953C462.053 56.2083 460.008 58.1484 457.404 59.5156C454.8 60.8698 451.818 61.5469 448.459 61.5469C444.709 61.5469 441.415 60.7201 438.576 59.0664C435.738 57.3997 433.524 55.0365 431.936 51.9766C430.36 48.9036 429.572 45.2578 429.572 41.0391C429.572 37.7969 430.041 34.9062 430.979 32.3672C431.929 29.8151 433.257 27.6536 434.963 25.8828C436.669 24.112 438.654 22.7643 440.92 21.8398C443.186 20.9154 445.64 20.4531 448.283 20.4531C450.549 20.4531 452.658 20.7852 454.611 21.4492C456.564 22.1003 458.296 23.0247 459.807 24.2227C461.33 25.4206 462.574 26.8464 463.537 28.5C464.501 30.1406 465.119 31.9505 465.393 33.9297H456.799ZM468.161 21H477.634L486.755 38.2266H487.146L496.267 21H505.739L491.149 46.8594V61H482.751V46.8594L468.161 21ZM510.358 21H520.788L531.804 47.875H532.272L543.288 21H553.718V61H545.515V34.9648H545.183L534.831 60.8047H529.245L518.894 34.8672H518.562V61H510.358V21Z" fill="white"/>
</svg>
